<svg xmlns="http://www.w3.org/2000/svg" width="1200" height="900" viewBox="0 0 1200 900">
  <defs><radialGradient id="g" cx="50%" cy="50%" r="60%"><stop offset="0" stop-color="#1c7c73" stop-opacity="0.18"/><stop offset="0.55" stop-color="#315fa8" stop-opacity="0.08"/><stop offset="1" stop-color="#ffffff" stop-opacity="0"/></radialGradient></defs>
  <rect width="1200" height="900" fill="none"/>
  <circle cx="645" cy="420" r="260" fill="url(#g)"/>
  <g fill="none" stroke="#1c7c73" stroke-opacity="0.16" stroke-width="2">
    <ellipse cx="645" cy="420" rx="330" ry="132" transform="rotate(-13 645 420)"/>
    <ellipse cx="645" cy="420" rx="250" ry="96" transform="rotate(24 645 420)"/>
    <ellipse cx="645" cy="420" rx="185" ry="72" transform="rotate(-44 645 420)"/>
  </g>
  <circle cx="645" cy="420" r="54" fill="#ffffff" fill-opacity="0.9" stroke="#1c7c73" stroke-opacity="0.28"/>
  <circle cx="645" cy="420" r="20" fill="#1c7c73" fill-opacity="0.22"/>
  <g fill="#315fa8" fill-opacity="0.22"><circle cx="390" cy="356" r="16"/><circle cx="860" cy="292" r="13"/><circle cx="805" cy="565" r="18"/><circle cx="501" cy="556" r="12"/><circle cx="715" cy="238" r="10"/></g>
  <g stroke="#315fa8" stroke-opacity="0.13" stroke-width="2"><path d="M390 356 L645 420 L860 292"/><path d="M501 556 L645 420 L805 565"/><path d="M715 238 L645 420"/></g>
</svg>