<svg xmlns="http://www.w3.org/2000/svg" width="1600" height="1000" viewBox="0 0 1600 1000">
  <defs>
    <radialGradient id="hub" cx="50%" cy="50%" r="55%"><stop offset="0" stop-color="#75e6d1" stop-opacity="0.55"/><stop offset="0.35" stop-color="#7aa7ff" stop-opacity="0.20"/><stop offset="1" stop-color="#071018" stop-opacity="0"/></radialGradient>
    <filter id="blur"><feGaussianBlur stdDeviation="1.1"/></filter>
  </defs>
  <rect width="1600" height="1000" fill="#071018"/>
  <circle cx="950" cy="450" r="420" fill="url(#hub)" filter="url(#blur)"/>
  <g fill="none" stroke="#75e6d1" stroke-opacity="0.20" stroke-width="2">
    <ellipse cx="960" cy="470" rx="520" ry="160" transform="rotate(-16 960 470)"/>
    <ellipse cx="960" cy="470" rx="420" ry="115" transform="rotate(18 960 470)"/>
    <ellipse cx="960" cy="470" rx="300" ry="82" transform="rotate(-38 960 470)"/>
  </g>
  <g stroke="#dce8ff" stroke-opacity="0.23" stroke-width="1.5">
    <path d="M620 600 C730 500 850 460 960 470 C1100 485 1210 410 1330 315" fill="none"/>
    <path d="M545 390 C720 450 840 520 1030 520 C1190 520 1300 585 1420 680" fill="none"/>
    <path d="M690 280 C790 385 850 420 960 470 C1040 505 1115 560 1225 720" fill="none"/>
  </g>
  <g font-family="Arial, Helvetica, sans-serif" font-size="18" fill="#eef6ff" opacity="0.84">
    <g><circle cx="960" cy="470" r="54" fill="#75e6d1" opacity="0.20" stroke="#75e6d1" stroke-opacity="0.55"/><text x="910" y="464">Human</text><text x="895" y="488">Governance</text></g>
    <g><circle cx="620" cy="600" r="36" fill="#7aa7ff" opacity="0.16" stroke="#7aa7ff" stroke-opacity="0.55"/><text x="584" y="606">Finance</text></g>
    <g><circle cx="1330" cy="315" r="38" fill="#7aa7ff" opacity="0.16" stroke="#7aa7ff" stroke-opacity="0.55"/><text x="1280" y="321">Compliance</text></g>
    <g><circle cx="545" cy="390" r="37" fill="#7aa7ff" opacity="0.16" stroke="#7aa7ff" stroke-opacity="0.55"/><text x="506" y="396">Service</text></g>
    <g><circle cx="1420" cy="680" r="38" fill="#7aa7ff" opacity="0.16" stroke="#7aa7ff" stroke-opacity="0.55"/><text x="1377" y="686">Reporting</text></g>
    <g><circle cx="690" cy="280" r="38" fill="#7aa7ff" opacity="0.16" stroke="#7aa7ff" stroke-opacity="0.55"/><text x="657" y="286">Risk</text></g>
    <g><circle cx="1225" cy="720" r="38" fill="#7aa7ff" opacity="0.16" stroke="#7aa7ff" stroke-opacity="0.55"/><text x="1180" y="726">Operations</text></g>
  </g>
  <g fill="#fff" opacity="0.24">
    <circle cx="210" cy="180" r="2"/><circle cx="315" cy="760" r="2"/><circle cx="1480" cy="210" r="2"/><circle cx="1320" cy="880" r="1.6"/><circle cx="120" cy="520" r="1.4"/>
  </g>
</svg>